<svg xmlns="http://www.w3.org/2000/svg" viewBox="0 0 128 156" role="img" aria-label="Rainbow Apple logo">
  <defs>
    <clipPath id="apple-shape">
      <path fill-rule="evenodd" d="M74 27c7-9 11-18 10-27-9 1-20 7-26 15-6 8-10 17-9 25 9 1 18-4 25-13ZM94 44c-11 0-17 6-26 6-10 0-16-6-28-6C17 44 4 58 4 80c0 15 5 30 12 43 10 18 21 29 33 29 10 0 15-6 27-6 11 0 16 6 26 6 12 0 22-11 31-27 7-12 10-24 10-25-1 0-19-8-19-29 0-18 14-27 15-28-8-12-20-18-33-18-4 0-8 1-12 3-3 8-8 15-15 20-10 8-22 11-33 8 3 9 10 17 20 21 11 5 24 4 35-2 4-2 8-3 12-3 5 0 9 1 13 4 7 4 14 5 22 4-4-7-8-12-14-16-7-6-16-10-26-10Zm35 27a12 12 0 1 1 0-24 12 12 0 0 1 0 24Z"/>
      <path d="M82 21c5-7 8-14 8-20-8 1-15 5-20 11-5 6-8 13-7 20 8 0 14-3 19-11Z"/>
    </clipPath>
  </defs>
  <g clip-path="url(#apple-shape)">
    <rect width="128" height="26" y="0" fill="#6cc04a"/>
    <rect width="128" height="26" y="26" fill="#f2d64b"/>
    <rect width="128" height="26" y="52" fill="#f3a147"/>
    <rect width="128" height="26" y="78" fill="#e05d52"/>
    <rect width="128" height="26" y="104" fill="#ad74d7"/>
    <rect width="128" height="26" y="130" fill="#69a7e8"/>
  </g>
</svg>
